<svg width="110" height="110" viewBox="0 0 110 110" fill="none" xmlns="http://www.w3.org/2000/svg">
<path d="M11.056 76V30.752H28.08C31.4933 30.752 34.4373 31.2853 36.912 32.352C39.4293 33.376 41.3707 35.0187 42.736 37.28C44.144 39.5413 44.848 42.5067 44.848 46.176C44.848 49.6747 44.08 52.5973 42.544 54.944C41.008 57.2907 38.9173 59.0613 36.272 60.256C33.6267 61.408 30.5973 61.984 27.184 61.984H19.056V76H11.056ZM19.056 54.816H27.056C30 54.816 32.368 54.112 34.16 52.704C35.952 51.296 36.848 49.0773 36.848 46.048C36.848 43.4027 36.1013 41.4187 34.608 40.096C33.1147 38.7307 30.8107 38.048 27.696 38.048H19.056V54.816ZM52.431 76V30.752H63.375L75.919 53.6L88.335 30.752H98.959V76H90.959V40.864L77.455 65.312H74.063L60.431 40.864V76H52.431Z" 
fill="#270632"/>
</svg>
